HIERARCHY
ROOT root
{
	OFFSET 0.000000 0.000000 0.000000
	CHANNELS 6 Xposition Yposition Zposition Zrotation Yrotation Xrotation
	JOINT lhip
	{
		OFFSET 0.058581 -0.082280 -0.017664
		CHANNELS 3 Zrotation Yrotation Xrotation
		JOINT lknee
		{
			OFFSET 0.043451 -0.386469 0.008037
			CHANNELS 3 Zrotation Yrotation Xrotation
			JOINT lankle
			{
				OFFSET -0.014790 -0.426874 -0.037428
				CHANNELS 3 Zrotation Yrotation Xrotation
				JOINT ltoe
				{
					OFFSET 0.041054 -0.060286 0.122042
					CHANNELS 3 Zrotation Yrotation Xrotation
					End Site
					{
						OFFSET 0.000000 0.000000 0.000000
					}
				}
			}
		}
	}
	JOINT rhip
	{
		OFFSET -0.060310 -0.090513 -0.013543
		CHANNELS 3 Zrotation Yrotation Xrotation
		JOINT rknee
		{
			OFFSET -0.043257 -0.383688 -0.004843
			CHANNELS 3 Zrotation Yrotation Xrotation
			JOINT rankle
			{
				OFFSET 0.019056 -0.420046 -0.034562
				CHANNELS 3 Zrotation Yrotation Xrotation
				JOINT rtoe
				{
					OFFSET -0.034840 -0.062106 0.130323
					CHANNELS 3 Zrotation Yrotation Xrotation
					End Site
					{
						OFFSET 0.000000 0.000000 0.000000
					}
				}
			}
		}
	}
	JOINT lowerback
	{
		OFFSET 0.004439 0.124404 -0.038385
		CHANNELS 3 Zrotation Yrotation Xrotation
		JOINT upperback
		{
			OFFSET 0.004488 0.137956 0.026820
			CHANNELS 3 Zrotation Yrotation Xrotation
			JOINT chest
			{
				OFFSET -0.002265 0.056032 0.002855
				CHANNELS 3 Zrotation Yrotation Xrotation
				JOINT lowerneck
				{
					OFFSET -0.013390 0.211636 -0.033468
					CHANNELS 3 Zrotation Yrotation Xrotation
					JOINT upperneck
					{
						OFFSET 0.010113 0.088937 0.050410
						CHANNELS 3 Zrotation Yrotation Xrotation
						End Site
						{
							OFFSET 0.000000 0.000000 0.000000
						}
					}
				}
				JOINT lclavicle
				{
					OFFSET 0.071702 0.114000 -0.018898
					CHANNELS 3 Zrotation Yrotation Xrotation
					JOINT lshoulder
					{
						OFFSET 0.122921 0.045205 -0.019046
						CHANNELS 3 Zrotation Yrotation Xrotation
						JOINT lelbow
						{
							OFFSET 0.255332 -0.015649 -0.022946
							CHANNELS 3 Zrotation Yrotation Xrotation
							JOINT lwrist
							{
								OFFSET 0.265709 0.012698 -0.007375
								CHANNELS 3 Zrotation Yrotation Xrotation
								End Site
								{
									OFFSET 0.000000 0.000000 0.000000
								}
							}
						}
					}
				}
				JOINT rclavicle
				{
					OFFSET -0.082954 0.112472 -0.023707
					CHANNELS 3 Zrotation Yrotation Xrotation
					JOINT rshoulder
					{
						OFFSET -0.113228 0.046853 -0.008472
						CHANNELS 3 Zrotation Yrotation Xrotation
						JOINT relbow
						{
							OFFSET -0.260127 -0.014369 -0.031269
							CHANNELS 3 Zrotation Yrotation Xrotation
							JOINT rwrist
							{
								OFFSET -0.269108 0.006794 -0.006027
								CHANNELS 3 Zrotation Yrotation Xrotation
								End Site
								{
									OFFSET 0.000000 0.000000 0.000000
								}
							}
						}
					}
				}
			}
		}
	}
}
MOTION
Frames: 6
Frame Time: 0.033333
1.081111 0.757499 0.993112 -87.241100 2.861987 86.871695 2.639078 0.421899 8.194749 -2.561300 -15.636862 1.801426 6.980085 7.376190 -17.537451 0.000000 -0.000000 0.000000 1.077009 -1.503801 6.119937 3.457928 3.283807 6.399563 3.227971 -2.185509 -12.324061 0.000000 -0.000000 0.000000 -2.558633 1.471258 4.280476 1.674956 -3.120988 0.149607 1.465983 -2.442166 2.396830 2.464409 1.750065 10.843691 4.436519 -0.594518 1.510585 -27.321665 4.050828 3.910557 -62.435956 -6.280716 7.082206 9.307666 -19.468338 5.000021 -3.788619 0.870038 -7.111423 25.267515 -2.655908 1.364673 63.236631 2.409599 10.257017 -14.499761 21.869686 -2.285405 7.943168 -1.858263 -8.966831 
1.083431 0.757633 0.990431 -86.684109 3.401601 87.563394 3.352490 -0.018584 6.716949 -2.892071 -15.245072 2.693058 6.906932 6.910605 -17.451472 0.000000 -0.000000 0.000000 1.605577 -1.442577 5.334332 3.627651 2.859342 6.202703 2.800090 -2.344668 -12.092830 0.000000 -0.000000 0.000000 -1.523651 0.771790 3.545008 1.583616 -3.403033 0.686231 0.894840 -2.172266 2.399539 2.349322 1.543017 10.761188 4.277161 -0.832427 0.980949 -27.481809 4.138649 3.756148 -63.025219 -6.578555 7.343367 10.032911 -19.771880 5.709648 -4.650530 0.810802 -7.196502 24.735250 -2.756984 1.303717 64.213772 2.657082 10.367872 -14.642726 21.924389 -2.048060 7.982440 -1.745184 -9.532506 
1.083656 0.757450 0.990393 -86.264171 3.551526 87.269107 3.553050 0.013550 6.903988 -2.904352 -15.428984 2.799306 6.861775 6.622435 -17.570037 0.000000 -0.000000 0.000000 1.709098 -1.906031 5.793307 3.678308 2.726199 5.984833 2.707469 -2.266002 -12.094981 0.000000 -0.000000 0.000000 -1.262244 0.448112 3.843086 1.554821 -3.653175 1.024032 0.790308 -2.120833 2.193065 2.214934 1.346796 10.671110 4.169047 -1.032158 0.799917 -27.436945 4.065829 3.755584 -63.553475 -6.616606 7.464146 10.143929 -20.093763 6.207745 -5.288992 0.778028 -7.265291 24.657601 -2.690917 1.258532 64.540609 2.806439 10.074684 -14.772395 21.649134 -2.271887 8.186517 -1.612093 -9.556575 
1.085243 0.757863 0.990600 -86.318720 3.518999 87.372172 3.545467 0.035331 6.551628 -2.959920 -15.407715 3.012257 6.888026 6.553458 -17.589057 0.000000 -0.000000 0.000000 1.770852 -1.641143 5.516659 3.621266 2.590881 6.087891 2.723739 -2.335759 -12.107106 0.000000 -0.000000 0.000000 -1.367633 0.485595 3.945597 1.571331 -3.666671 0.844616 0.841532 -2.164577 2.205618 2.101348 1.174196 10.230167 4.034050 -1.302268 0.694848 -27.461035 3.945913 3.875958 -63.848003 -6.511004 7.753897 10.018905 -20.319115 6.889708 -5.346423 0.745044 -7.096393 24.631372 -2.598018 1.269412 64.553816 2.827504 10.110164 -14.783334 21.612524 -2.187245 8.132588 -1.617361 -9.630489 
1.085500 0.757704 0.990752 -86.280120 3.539751 87.258288 3.535509 0.075615 6.609245 -2.913590 -15.458951 3.089447 6.808138 6.449793 -17.686155 0.000000 -0.000000 0.000000 1.748287 -1.806540 5.631855 3.620453 2.605879 6.112575 2.797587 -2.190185 -12.097421 0.000000 -0.000000 0.000000 -1.267325 0.428706 4.046587 1.530980 -3.723722 0.893052 0.804447 -2.199535 2.228804 2.012791 1.023005 10.052139 3.965109 -1.457275 0.574993 -27.581509 3.911123 3.800018 -63.853012 -6.550683 7.795174 9.986694 -20.312702 7.036616 -5.047411 0.789504 -6.487779 24.577788 -2.483374 1.239979 64.470502 2.825204 10.040095 -14.674598 21.679254 -2.231793 8.090079 -1.509370 -9.521171 
1.086179 0.757973 0.990853 -86.318544 3.537407 87.262993 3.535177 0.000746 6.593449 -2.892556 -15.306068 3.023860 6.833447 6.519673 -17.569814 0.000000 -0.000000 0.000000 1.790782 -1.703026 5.580087 3.602189 2.612237 6.114315 2.685755 -2.337745 -12.087923 0.000000 -0.000000 0.000000 -1.252801 0.400403 4.063189 1.483933 -3.741636 0.904801 0.776906 -2.210995 2.245143 1.847929 0.816103 9.767086 3.864750 -1.612661 0.433908 -27.523210 3.743543 3.935709 -63.889512 -6.493473 7.844778 10.013094 -20.485136 7.047167 -5.289776 0.608091 -6.849872 24.551566 -2.339899 1.450322 64.306239 2.813825 10.086699 -14.674260 22.034003 -2.123516 8.128391 -1.563931 -9.555820 
